<svg width="35" height="35" viewBox="0 0 35 35" fill="none" xmlns="http://www.w3.org/2000/svg">
<path fill-rule="evenodd" clip-rule="evenodd" d="M19.6873 4.375C22.9749 4.375 26.1278 5.68099 28.4525 8.00566C30.7772 10.3303 32.0832 13.4833 32.0832 16.7708C32.0832 20.0584 30.7772 23.2113 28.4525 25.536C26.1278 27.8607 22.9749 29.1667 19.6873 29.1667H18.9582V30.6104C18.9582 30.804 18.92 30.9956 18.8459 31.1744C18.7718 31.3532 18.6632 31.5156 18.5262 31.6524C18.3893 31.7892 18.2268 31.8977 18.0479 31.9716C17.869 32.0456 17.6773 32.0835 17.4838 32.0833C13.8963 32.0804 10.2621 30.8831 7.50442 28.4317C4.72192 25.9554 2.91942 22.276 2.9165 17.5131V16.7708C2.9165 13.4833 4.22249 10.3303 6.54716 8.00566C8.87183 5.68099 12.0248 4.375 15.3123 4.375H19.6873ZM12.3957 14.5833C11.8155 14.5833 11.2591 14.8138 10.8489 15.224C10.4386 15.6343 10.2082 16.1907 10.2082 16.7708C10.2082 17.351 10.4386 17.9074 10.8489 18.3176C11.2591 18.7279 11.8155 18.9583 12.3957 18.9583C12.9758 18.9583 13.5322 18.7279 13.9425 18.3176C14.3527 17.9074 14.5832 17.351 14.5832 16.7708C14.5832 16.1907 14.3527 15.6343 13.9425 15.224C13.5322 14.8138 12.9758 14.5833 12.3957 14.5833ZM22.604 14.5833C22.0238 14.5833 21.4674 14.8138 21.0572 15.224C20.647 15.6343 20.4165 16.1907 20.4165 16.7708C20.4165 17.351 20.647 17.9074 21.0572 18.3176C21.4674 18.7279 22.0238 18.9583 22.604 18.9583C23.1842 18.9583 23.7406 18.7279 24.1508 18.3176C24.561 17.9074 24.7915 17.351 24.7915 16.7708C24.7915 16.1907 24.561 15.6343 24.1508 15.224C23.7406 14.8138 23.1842 14.5833 22.604 14.5833Z" fill="#4E8FD1"/>
</svg>
