<svg width="12" height="21" viewBox="0 0 12 21" fill="none" xmlns="http://www.w3.org/2000/svg">
<path d="M9.75513 19.9792L0.979085 11.2292C0.874918 11.125 0.801307 11.0122 0.758252 10.8907C0.714502 10.7691 0.692627 10.6389 0.692627 10.5C0.692627 10.3612 0.714502 10.2309 0.758252 10.1094C0.801307 9.98789 0.874918 9.87504 0.979085 9.77087L9.75513 0.994832C9.99818 0.751777 10.302 0.630249 10.6666 0.630249C11.0312 0.630249 11.3437 0.760457 11.6041 1.02087C11.8645 1.28129 11.9947 1.58511 11.9947 1.93233C11.9947 2.27955 11.8645 2.58337 11.6041 2.84379L3.94784 10.5L11.6041 18.1563C11.8471 18.3993 11.9687 18.6987 11.9687 19.0542C11.9687 19.4105 11.8385 19.7188 11.578 19.9792C11.3176 20.2396 11.0138 20.3698 10.6666 20.3698C10.3194 20.3698 10.0155 20.2396 9.75513 19.9792Z" fill="#1C1C1C"/>
</svg>
