<svg width="12" height="21" viewBox="0 0 12 21" fill="none" xmlns="http://www.w3.org/2000/svg">
<path d="M0.447754 19.9791C0.187337 19.7187 0.0571289 19.4104 0.0571289 19.0541C0.0571289 18.6986 0.187337 18.3906 0.447754 18.1302L8.07796 10.5L0.421712 2.84371C0.178657 2.60065 0.0571289 2.29683 0.0571289 1.93225C0.0571289 1.56767 0.187337 1.25517 0.447754 0.994751C0.708171 0.734334 1.0165 0.604126 1.37275 0.604126C1.72831 0.604126 2.0363 0.734334 2.29671 0.994751L11.0467 9.77079C11.1509 9.87496 11.2248 9.98781 11.2686 10.1093C11.3116 10.2309 11.3332 10.3611 11.3332 10.5C11.3332 10.6388 11.3116 10.7691 11.2686 10.8906C11.2248 11.0121 11.1509 11.125 11.0467 11.2291L2.27067 20.0052C2.02761 20.2482 1.72831 20.3698 1.37275 20.3698C1.0165 20.3698 0.708171 20.2395 0.447754 19.9791Z" fill="#1C1C1C"/>
</svg>
