<svg width="16" height="16" viewBox="0 0 18 18" fill="none" xmlns="http://www.w3.org/2000/svg">
<path d="M15.0226 2.94326C14.2394 2.15214 13.3065 1.52488 12.2784 1.09807C11.2502 0.671265 10.1474 0.453448 9.03417 0.457326C4.36985 0.457326 0.568342 4.25883 0.568342 8.92315C0.568342 10.4181 0.961307 11.8704 1.69598 13.1518L0.5 17.5428L4.98492 16.3639C6.22362 17.0387 7.61608 17.3975 9.03417 17.3975C13.6985 17.3975 17.5 13.596 17.5 8.9317C17.5 6.66788 16.6201 4.54074 15.0226 2.94326ZM9.03417 15.9623C7.76985 15.9623 6.53115 15.6206 5.44623 14.9799L5.18995 14.8262L2.52462 15.5267L3.23367 12.9297L3.06281 12.6649C2.36039 11.5432 1.98741 10.2466 1.98643 8.92315C1.98643 5.04476 5.14723 1.88396 9.02563 1.88396C10.905 1.88396 12.6734 2.61863 13.9975 3.9513C14.6531 4.60393 15.1727 5.3802 15.5261 6.23513C15.8795 7.09005 16.0597 8.00661 16.0563 8.9317C16.0734 12.8101 12.9126 15.9623 9.03417 15.9623ZM12.8955 10.7C12.6819 10.5975 11.6397 10.085 11.4518 10.0081C11.2553 9.93974 11.1186 9.90557 10.9734 10.1106C10.8281 10.3242 10.4266 10.8026 10.307 10.9392C10.1874 11.0845 10.0593 11.1015 9.84573 10.9905C9.63216 10.888 8.94874 10.6573 8.14573 9.93974C7.51357 9.37592 7.09497 8.68396 6.96683 8.47039C6.84724 8.25682 6.94975 8.14577 7.0608 8.03471C7.15477 7.94074 7.27437 7.78697 7.37688 7.66737C7.4794 7.54778 7.52211 7.45381 7.59045 7.31712C7.65879 7.1719 7.62462 7.0523 7.57337 6.94979C7.52211 6.84728 7.09497 5.80506 6.92412 5.37793C6.75327 4.96788 6.57387 5.01913 6.44573 5.01059H6.03568C5.89045 5.01059 5.66834 5.06185 5.47186 5.27542C5.28392 5.48898 4.73719 6.00155 4.73719 7.04376C4.73719 8.08597 5.49749 9.09401 5.6 9.23069C5.70251 9.37592 7.09497 11.5116 9.21357 12.4257C9.71759 12.6478 10.1106 12.7759 10.4181 12.8699C10.9221 13.0322 11.3834 13.0066 11.7508 12.9553C12.1608 12.8955 13.0065 12.4428 13.1774 11.9473C13.3568 11.4518 13.3568 11.0332 13.297 10.9392C13.2372 10.8453 13.109 10.8026 12.8955 10.7Z" fill="#FDFDFD"/>
</svg>
